<svg width="127" height="122" viewBox="0 0 127 122" fill="none" xmlns="http://www.w3.org/2000/svg">
<path d="M3.91116 49.1785L13.9257 49.0517L13.9664 48.9275L5.96865 42.899L6.55953 41.0956L16.3136 48.6981L15.682 50.6257L3.32027 50.9819L3.91116 49.1785Z" fill="#D46E35"/>
<path d="M12.3127 30.7332L22.0517 37.1017L21.0908 38.5711L11.3519 32.2026L12.3127 30.7332Z" fill="#D46E35"/>
<path d="M25.6814 20.2315C25.2744 19.8747 24.809 19.7351 24.2852 19.8126C23.7589 19.8873 23.2493 20.1492 22.7565 20.5981C22.4037 20.9196 22.1495 21.2536 21.9939 21.6003C21.8358 21.9442 21.7733 22.2778 21.8066 22.6011C21.84 22.9191 21.9677 23.1999 22.1897 23.4435C22.3759 23.6479 22.5842 23.7809 22.8146 23.8426C23.0478 23.9017 23.2887 23.9102 23.5374 23.8682C23.7863 23.8208 24.0323 23.7478 24.2756 23.6492C24.5162 23.5477 24.7397 23.4415 24.946 23.3304L25.985 22.7835C26.3206 22.6007 26.6849 22.4354 27.0779 22.2874C27.4709 22.1395 27.8761 22.047 28.2934 22.0102C28.7107 21.9733 29.1213 22.0246 29.525 22.164C29.9316 22.3009 30.3109 22.5626 30.6629 22.949C31.1068 23.4362 31.3749 23.9836 31.4673 24.5912C31.5625 25.1962 31.4715 25.8248 31.1945 26.4769C30.9203 27.1264 30.4472 27.7573 29.7751 28.3695C29.1311 28.9563 28.4808 29.3617 27.8242 29.5859C27.1675 29.8101 26.5353 29.8557 25.9275 29.7228C25.3171 29.5872 24.7619 29.2731 24.262 28.7806L25.564 27.5944C25.8724 27.8822 26.2091 28.0494 26.5743 28.0959C26.9397 28.137 27.307 28.0817 27.676 27.93C28.0453 27.7729 28.3965 27.5425 28.7298 27.239C29.0966 26.9048 29.3705 26.5502 29.5515 26.1752C29.7328 25.7948 29.8116 25.4258 29.788 25.0681C29.7619 24.7076 29.6213 24.3873 29.3662 24.1073C29.1341 23.8525 28.8712 23.7102 28.5776 23.6805C28.2869 23.6482 27.9698 23.691 27.6265 23.8091C27.2859 23.9247 26.9247 24.0821 26.5427 24.2816L25.2737 24.9304C24.414 25.3703 23.6167 25.5919 22.8819 25.5953C22.1498 25.5961 21.5108 25.2969 20.9649 24.6976C20.5134 24.202 20.2537 23.647 20.1857 23.0325C20.1178 22.418 20.2203 21.7993 20.4933 21.1766C20.7638 20.551 21.1874 19.9754 21.7642 19.4499C22.3466 18.9193 22.9535 18.5534 23.585 18.3522C24.2192 18.1485 24.8284 18.1084 25.4125 18.2321C25.9941 18.3531 26.501 18.6394 26.9331 19.0912L25.6814 20.2315Z" fill="#D46E35"/>
<path d="M35.1822 10.2591L40.6186 20.5475L39.0663 21.3677L33.6299 11.0794L35.1822 10.2591Z" fill="#D46E35"/>
<path d="M44.8742 7.642L44.5247 6.17159L53.2864 4.08928L53.6358 5.55969L50.1035 6.39918L52.4446 16.2498L50.7421 16.6544L48.4009 6.80382L44.8742 7.642Z" fill="#D46E35"/>
<path d="M81.1033 9.17558C81.1895 8.64122 81.0608 8.17268 80.717 7.76996C80.3742 7.3636 79.8818 7.07079 79.2397 6.89154C78.78 6.76322 78.3619 6.72517 77.9856 6.77741C77.6102 6.826 77.2943 6.95019 77.038 7.14999C76.7863 7.34716 76.6162 7.60445 76.5276 7.92186C76.4532 8.18819 76.4511 8.43535 76.5211 8.66335C76.5949 8.89236 76.7155 9.10105 76.8832 9.28943C77.0555 9.47517 77.248 9.64493 77.4607 9.79869C77.6744 9.9488 77.8831 10.0818 78.0867 10.1976L79.1018 10.7877C79.4349 10.9751 79.7685 11.196 80.1025 11.4505C80.4365 11.705 80.7299 11.9993 80.9828 12.3333C81.2356 12.6674 81.4101 13.0425 81.5063 13.4587C81.6061 13.8759 81.5858 14.3363 81.4452 14.8397C81.268 15.4746 80.9465 15.9924 80.4806 16.3933C80.0184 16.7952 79.4375 17.0518 78.7378 17.1633C78.0418 17.2757 77.256 17.2097 76.3804 16.9653C75.5412 16.7311 74.8524 16.3952 74.3138 15.9578C73.7752 15.5204 73.4009 15.0088 73.1907 14.4232C72.9816 13.8339 72.9531 13.1967 73.105 12.5115L74.8015 12.9851C74.7213 13.3993 74.7584 13.7734 74.9129 14.1075C75.072 14.4391 75.3139 14.7209 75.6384 14.9531C75.9676 15.1826 76.3493 15.358 76.7834 15.4792C77.2614 15.6126 77.7073 15.6565 78.1212 15.6108C78.5397 15.5624 78.8943 15.4333 79.185 15.2234C79.4766 15.0099 79.6733 14.7207 79.7752 14.3558C79.8679 14.0238 79.8489 13.7256 79.7182 13.461C79.5912 13.1974 79.3866 12.9515 79.1042 12.7233C78.8255 12.496 78.5002 12.2735 78.1285 12.0557L76.9049 11.3248C76.0756 10.8298 75.4645 10.2718 75.0716 9.65087C74.6822 9.03094 74.5966 8.33059 74.8145 7.54984C74.9948 6.90407 75.3272 6.38928 75.8119 6.00547C76.2966 5.62165 76.8753 5.38009 77.548 5.28078C78.2217 5.17783 78.9343 5.23125 79.6859 5.44105C80.4447 5.65289 81.0771 5.97295 81.5828 6.40121C82.0922 6.8305 82.4495 7.32549 82.6548 7.88618C82.8611 8.44322 82.8876 9.02478 82.7341 9.63083L81.1033 9.17558Z" fill="#D46E35"/>
<path d="M87.257 20.8894L93.7605 11.2401L95.2164 12.2213L92.3901 16.4146L97.2006 19.6569L100.027 15.4636L101.487 16.448L94.9839 26.0973L93.5234 25.1129L96.3591 20.9054L91.5486 17.6632L88.7128 21.8706L87.257 20.8894Z" fill="#D46E35"/>
<path d="M110.925 35.6324C109.927 36.3718 108.933 36.8249 107.944 36.9917C106.958 37.1562 106.036 37.0635 105.179 36.7136C104.326 36.3645 103.601 35.7867 103.004 34.98C102.404 34.1703 102.061 33.3053 101.973 32.3851C101.891 31.4656 102.073 30.5573 102.521 29.6599C102.969 28.7626 103.691 27.9454 104.686 27.2082C105.684 26.4688 106.677 26.0168 107.662 25.8523C108.651 25.6855 109.572 25.7767 110.425 26.1258C111.282 26.4757 112.011 27.0555 112.611 27.8652C113.208 28.6718 113.548 29.5349 113.63 30.4543C113.718 31.3746 113.538 32.2833 113.09 33.1806C112.645 34.0757 111.924 34.893 110.925 35.6324ZM109.89 34.2352C110.651 33.6716 111.201 33.0738 111.539 32.4417C111.882 31.8104 112.03 31.1825 111.982 30.558C111.939 29.9342 111.72 29.3545 111.323 28.8188C110.924 28.28 110.432 27.8994 109.848 27.6769C109.267 27.4522 108.623 27.4104 107.917 27.5516C107.216 27.6936 106.485 28.0464 105.724 28.61C104.963 29.1735 104.411 29.771 104.068 30.4023C103.73 31.0343 103.582 31.6622 103.625 32.286C103.67 32.9075 103.892 33.4876 104.291 34.0264C104.688 34.5621 105.177 34.9424 105.758 35.1671C106.345 35.3926 106.989 35.4344 107.69 35.2924C108.396 35.1512 109.129 34.7988 109.89 34.2352Z" fill="#D46E35"/>
<path d="M109.509 45.7171L120.601 42.2017L121.854 46.1556C122.128 47.0186 122.197 47.7833 122.063 48.4498C121.928 49.1162 121.633 49.6767 121.177 50.1312C120.725 50.5845 120.159 50.9187 119.48 51.1338C118.798 51.3501 118.139 51.402 117.503 51.2896C116.872 51.1796 116.308 50.8897 115.809 50.4198C115.315 49.9525 114.932 49.2891 114.66 48.4297L113.798 45.7107L115.217 45.261L116.031 47.8283C116.204 48.3736 116.438 48.7862 116.733 49.0661C117.032 49.3449 117.371 49.5116 117.75 49.5664C118.129 49.6211 118.528 49.5821 118.947 49.4493C119.365 49.3166 119.712 49.1193 119.987 48.8574C120.261 48.5955 120.436 48.2639 120.512 47.8625C120.588 47.4647 120.539 46.9878 120.362 46.4317L119.696 44.3302L110.039 47.3908L109.509 45.7171Z" fill="#D46E35"/>
<path d="M122.834 72.05L112.819 72.1768L112.778 72.301L120.776 78.3295L120.185 80.1329L110.431 72.5304L111.063 70.6028L123.424 70.2467L122.834 72.05Z" fill="#D46E35"/>
<path d="M114.432 90.4953L104.693 84.1268L105.654 82.6574L115.393 89.0259L114.432 90.4953Z" fill="#D46E35"/>
<path d="M101.063 100.997C101.47 101.354 101.936 101.493 102.46 101.416C102.986 101.341 103.496 101.079 103.988 100.63C104.341 100.309 104.595 99.9749 104.751 99.6282C104.909 99.2843 104.972 98.9507 104.938 98.6274C104.905 98.3094 104.777 98.0286 104.555 97.785C104.369 97.5806 104.161 97.4476 103.93 97.3859C103.697 97.3268 103.456 97.3183 103.207 97.3603C102.959 97.4077 102.713 97.4808 102.469 97.5794C102.229 97.6808 102.005 97.787 101.799 97.8981L100.76 98.445C100.424 98.6278 100.06 98.7931 99.667 98.9411C99.274 99.089 98.8688 99.1815 98.4515 99.2184C98.0341 99.2552 97.6236 99.204 97.2199 99.0645C96.8133 98.9276 96.434 98.6659 96.082 98.2795C95.6381 97.7923 95.37 97.2449 95.2776 96.6373C95.1824 96.0323 95.2733 95.4037 95.5504 94.7516C95.8246 94.1021 96.2977 93.4712 96.9697 92.859C97.6137 92.2722 98.2641 91.8668 98.9207 91.6426C99.5773 91.4185 100.21 91.3728 100.817 91.5057C101.428 91.6413 101.983 91.9554 102.483 92.4479L101.181 93.6341C100.873 93.3463 100.536 93.1791 100.171 93.1326C99.8051 93.0915 99.4379 93.1468 99.0689 93.2985C98.6996 93.4556 98.3483 93.686 98.0151 93.9896C97.6483 94.3237 97.3744 94.6783 97.1934 95.0533C97.0121 95.4337 96.9333 95.8027 96.9568 96.1604C96.983 96.521 97.1236 96.8412 97.3787 97.1212C97.6108 97.376 97.8737 97.5183 98.1672 97.5481C98.458 97.5804 98.775 97.5375 99.1184 97.4194C99.4589 97.3038 99.8202 97.1464 100.202 96.947L101.471 96.2982C102.331 95.8582 103.128 95.6366 103.863 95.6332C104.595 95.6324 105.234 95.9317 105.78 96.5309C106.231 97.0265 106.491 97.5815 106.559 98.1961C106.627 98.8106 106.525 99.4292 106.252 100.052C105.981 100.678 105.557 101.253 104.981 101.779C104.398 102.309 103.791 102.675 103.16 102.876C102.526 103.08 101.916 103.12 101.332 102.996C100.751 102.875 100.244 102.589 99.8118 102.137L101.063 100.997Z" fill="#D46E35"/>
<path d="M91.5625 110.969L86.1261 100.681L87.6784 99.8608L93.1148 110.149L91.5625 110.969Z" fill="#D46E35"/>
<path d="M81.8706 113.587L82.22 115.057L73.4584 117.139L73.1089 115.669L76.6412 114.829L74.3001 104.979L76.0027 104.574L78.3438 114.425L81.8706 113.587Z" fill="#D46E35"/>
<path d="M45.6413 112.053C45.5551 112.587 45.6839 113.056 46.0276 113.459C46.3704 113.865 46.8628 114.158 47.5049 114.337C47.9646 114.465 48.3827 114.503 48.7591 114.451C49.1344 114.403 49.4503 114.278 49.7066 114.079C49.9583 113.881 50.1285 113.624 50.2171 113.307C50.2914 113.04 50.2936 112.793 50.2235 112.565C50.1498 112.336 50.0291 112.127 49.8614 111.939C49.6891 111.753 49.4966 111.584 49.2839 111.43C49.0702 111.28 48.8615 111.147 48.6579 111.031L47.6428 110.441C47.3097 110.253 46.9762 110.033 46.6421 109.778C46.3081 109.524 46.0147 109.229 45.7619 108.895C45.509 108.561 45.3345 108.186 45.2383 107.77C45.1385 107.353 45.1589 106.892 45.2994 106.389C45.4766 105.754 45.7982 105.236 46.264 104.835C46.7262 104.433 47.3071 104.177 48.0068 104.065C48.7028 103.953 49.4886 104.019 50.3642 104.263C51.2034 104.497 51.8922 104.833 52.4308 105.271C52.9694 105.708 53.3438 106.22 53.5539 106.805C53.763 107.395 53.7916 108.032 53.6396 108.717L51.9431 108.243C52.0234 107.829 51.9862 107.455 51.8317 107.121C51.6726 106.789 51.4307 106.508 51.1062 106.275C50.777 106.046 50.3954 105.871 49.9612 105.749C49.4833 105.616 49.0373 105.572 48.6234 105.618C48.2049 105.666 47.8503 105.795 47.5597 106.005C47.268 106.219 47.0713 106.508 46.9694 106.873C46.8768 107.205 46.8957 107.503 47.0264 107.768C47.1534 108.031 47.3581 108.277 47.6404 108.505C47.9191 108.732 48.2444 108.955 48.6162 109.173L49.8397 109.904C50.669 110.399 51.2801 110.957 51.6731 111.578C52.0624 112.198 52.1481 112.898 51.9301 113.679C51.7499 114.324 51.4174 114.839 50.9327 115.223C50.448 115.607 49.8693 115.848 49.1967 115.948C48.523 116.051 47.8103 115.997 47.0587 115.787C46.2999 115.576 45.6676 115.256 45.1618 114.827C44.6524 114.398 44.2951 113.903 44.0898 113.342C43.8835 112.785 43.8571 112.204 44.0105 111.598L45.6413 112.053Z" fill="#D46E35"/>
<path d="M39.4877 100.339L32.9841 109.988L31.5283 109.007L34.3545 104.814L29.544 101.572L26.7177 105.765L25.2572 104.781L31.7607 95.1312L33.2213 96.1156L30.3855 100.323L35.196 103.565L38.0318 99.3579L39.4877 100.339Z" fill="#D46E35"/>
<path d="M15.8197 85.5961C16.8181 84.8567 17.8118 84.4036 18.8007 84.2368C19.7865 84.0723 20.7083 84.165 21.5661 84.5149C22.4185 84.864 23.1435 85.4419 23.7409 86.2485C24.3405 87.0582 24.6842 87.9232 24.7718 88.8434C24.8541 89.7629 24.6714 90.6713 24.2235 91.5686C23.7757 92.4659 23.0541 93.2831 22.0587 94.0203C21.0603 94.7598 20.0681 95.2117 19.0823 95.3762C18.0934 95.543 17.1727 95.4518 16.3202 95.1027C15.4625 94.7528 14.7338 94.1731 14.1341 93.3634C13.5367 92.5567 13.1968 91.6937 13.1145 90.7742C13.0269 89.854 13.207 88.9452 13.6548 88.0479C14.0996 87.1528 14.8212 86.3356 15.8197 85.5961ZM16.8544 86.9933C16.0934 87.5569 15.544 88.1547 15.2061 88.7868C14.8629 89.4181 14.7151 90.046 14.7629 90.6705C14.8053 91.2943 15.0249 91.874 15.4217 92.4098C15.8207 92.9485 16.3124 93.3292 16.8966 93.5516C17.4779 93.7764 18.1216 93.8181 18.8277 93.6769C19.5286 93.535 20.2595 93.1822 21.0205 92.6186C21.7815 92.055 22.3336 91.4575 22.6768 90.8263C23.0148 90.1942 23.1625 89.5663 23.12 88.9425C23.0746 88.321 22.8523 87.7409 22.4533 87.2021C22.0565 86.6664 21.5675 86.2861 20.9863 86.0614C20.3997 85.8359 19.756 85.7941 19.0552 85.9361C18.349 86.0773 17.6154 86.4297 16.8544 86.9933Z" fill="#D46E35"/>
<path d="M17.2361 75.5114L6.14348 79.0269L4.8904 75.0729C4.6169 74.2099 4.54739 73.4452 4.68187 72.7787C4.81635 72.1123 5.11158 71.5518 5.56757 71.0974C6.01994 70.6441 6.58555 70.3098 7.26439 70.0947C7.94685 69.8784 8.6059 69.8265 9.24155 69.939C9.87244 70.049 10.4372 70.3389 10.9357 70.8087C11.4295 71.276 11.8126 71.9394 12.085 72.7988L12.9467 75.5178L11.5276 75.9675L10.714 73.4002C10.5412 72.8549 10.3071 72.4424 10.0118 72.1624C9.71283 71.8837 9.37389 71.7169 8.99494 71.6622C8.616 71.6074 8.2171 71.6464 7.79824 71.7792C7.37938 71.9119 7.03263 72.1092 6.758 72.3711C6.48338 72.633 6.30834 72.9646 6.2329 73.366C6.15632 73.7638 6.20614 74.2407 6.38237 74.7968L7.04839 76.8983L16.7057 73.8377L17.2361 75.5114Z" fill="#D46E35"/>
</svg>
